:FULLY-SPECIFIED
:FORCE-ALL-JOINTS-BE-3DOF
:DEGREES
1
root -2.95645 16.8291 -36.2757 3.79203 -0.409345 -2.77144
lfemur -18.1857 -3.85478 -7.37129
ltibia 37.6337 0 0
lfoot -17.8071 6.78532 0
ltoes -26.1578 0 0
rfemur -19.1521 0.15077 14.7318
rtibia 40.3652 0 0
rfoot -23.1652 -2.86285 0
rtoes -21.0274 0 0
lowerback 7.02591 2.55716 -1.97249
upperback -3.14202 3.31583 1.27229
thorax -7.43554 1.75645 1.99661
lowerneck -4.68188 -4.04088 -6.84108
upperneck 4.69893 -5.30737 6.47589
head 2.76948 -2.5844 3.14763
lclavicle 1.91563e-15 -9.24349e-15 0
lhumerus -27.0689 -5.33108 89.6453
lradius 25.7364 0 0
lwrist -30.6252 0 0
lhand -28.8405 29.9909 0
lfingers 7.12502 0 0
lthumb -2.19771 59.9594 0
rclavicle 1.91563e-15 -9.24349e-15 0
rhumerus -32.8355 4.71181 -81.727
rradius 32.9783 0 0
rwrist 3.84135 0 0
rhand -24.1523 -25.0894 0
rfingers 7.12502 0 0
rthumb 2.33029 -55.0564 0
2
root -2.95726 16.8257 -36.2792 3.75454 -0.417258 -2.76525
lfemur -18.1654 -3.76286 -7.38741
ltibia 37.6607 0 0
lfoot -17.8213 6.74216 0
ltoes -25.984 0 0
rfemur -19.1448 0.0988549 14.7257
rtibia 40.4087 0 0
rfoot -23.1665 -2.79422 0
rtoes -20.8339 0 0
lowerback 7.08857 2.55388 -1.97349
upperback -3.13279 3.31032 1.27321
thorax -7.46175 1.7538 1.99691
lowerneck -4.67207 -4.03651 -6.83975
upperneck 4.69251 -5.30192 6.47609
head 2.76502 -2.58182 3.14779
lclavicle 1.97754e-15 -9.24352e-15 0
lhumerus -27.0609 -5.32796 89.6553
lradius 25.7356 0 0
lwrist -30.6157 0 0
lhand -28.8418 29.9863 0
lfingers 7.12502 0 0
lthumb -2.19896 59.9548 0
rclavicle 1.97754e-15 -9.24352e-15 0
rhumerus -32.8277 4.68643 -81.7103
rradius 32.9437 0 0
rwrist 3.83191 0 0
rhand -24.1278 -25.109 0
rfingers 7.12502 0 0
rthumb 2.354 -55.0756 0
3
root -2.95806 16.8223 -36.2826 3.71162 -0.426734 -2.75831
lfemur -18.1409 -3.66032 -7.40542
ltibia 37.6892 0 0
lfoot -17.8363 6.69523 0
ltoes -25.7905 0 0
rfemur -19.1356 0.0409806 14.7189
rtibia 40.4563 0 0
rfoot -23.1671 -2.7162 0
rtoes -20.6154 0 0
lowerback 7.16044 2.55032 -1.97489
upperback -3.12206 3.30424 1.27432
thorax -7.49168 1.75088 1.99742
lowerneck -4.66165 -4.0315 -6.83828
upperneck 4.68502 -5.29563 6.47655
head 2.76004 -2.57882 3.14806
lclavicle 2.0514e-15 -9.24562e-15 0
lhumerus -27.0518 -5.32475 89.6669
lradius 25.735 0 0
lwrist -30.6047 0 0
lhand -28.8433 29.9809 0
lfingers 7.12502 0 0
lthumb -2.20042 59.9493 0
rclavicle 2.0514e-15 -9.24562e-15 0
rhumerus -32.8187 4.65748 -81.6915
rradius 32.9044 0 0
rwrist 3.82155 0 0
rhand -24.101 -25.131 0
rfingers 7.12502 0 0
rthumb 2.37983 -55.0973 0
4
root -2.95887 16.8189 -36.2861 3.66358 -0.437678 -2.75066
lfemur -18.1124 -3.54767 -7.42523
ltibia 37.7192 0 0
lfoot -17.8521 6.64467 0
ltoes -25.5781 0 0
rfemur -19.1245 -0.0225707 14.7117
rtibia 40.5079 0 0
rfoot -23.1669 -2.62927 0
rtoes -20.3731 0 0
lowerback 7.24102 2.54649 -1.97666
upperback -3.1099 3.29761 1.2756
thorax -7.52513 1.74771 1.99811
lowerneck -4.65065 -4.02589 -6.83668
upperneck 4.67652 -5.28855 6.47727
head 2.75454 -2.57542 3.14843
lclavicle 2.1365e-15 -9.24963e-15 0
lhumerus -27.0416 -5.32143 89.6801
lradius 25.7346 0 0
lwrist -30.5923 0 0
lhand -28.845 29.9746 0
lfingers 7.12502 0 0
lthumb -2.20207 59.9431 0
rclavicle 2.1365e-15 -9.24963e-15 0
rhumerus -32.8087 4.62515 -81.6706
rradius 32.8607 0 0
rwrist 3.81031 0 0
rhand -24.0721 -25.1553 0
rfingers 7.12502 0 0
rthumb 2.40772 -55.1212 0
5
root -2.95967 16.8155 -36.2895 3.6107 -0.449994 -2.74233
lfemur -18.0802 -3.4254 -7.44674
ltibia 37.7505 0 0
lfoot -17.8686 6.59063 0
ltoes -25.3477 0 0
rfemur -19.1118 -0.0915164 14.7038
rtibia 40.5632 0 0
rfoot -23.1661 -2.53394 0
rtoes -20.1083 0 0
lowerback 7.3298 2.54239 -1.97876
upperback -3.0964 3.29045 1.27705
thorax -7.56189 1.7443 1.99897
lowerneck -4.63907 -4.01971 -6.83496
upperneck 4.66707 -5.28073 6.47821
head 2.74857 -2.57166 3.14889
lclavicle 2.2321e-15 -9.25537e-15 0
lhumerus -27.0305 -5.31801 89.6948
lradius 25.7344 0 0
lwrist -30.5786 0 0
lhand -28.8469 29.9677 0
lfingers 7.12502 0 0
lthumb -2.20391 59.9361 0
rclavicle 2.2321e-15 -9.25537e-15 0
rhumerus -32.7978 4.58965 -81.6477
rradius 32.8128 0 0
rwrist 3.79823 0 0
rhand -24.0412 -25.1818 0
rfingers 7.12502 0 0
rthumb 2.43757 -55.1472 0
6
root -2.96048 16.8121 -36.293 3.55329 -0.463585 -2.73337
lfemur -18.0446 -3.29404 -7.46988
ltibia 37.7833 0 0
lfoot -17.8858 6.53324 0
ltoes -25.1004 0 0
rfemur -19.0974 -0.165574 14.6955
rtibia 40.622 0 0
rfoot -23.1647 -2.43071 0
rtoes -19.8223 0 0
lowerback 7.42628 2.53804 -1.98118
upperback -3.08166 3.2828 1.27864
thorax -7.60177 1.74066 1.99999
lowerneck -4.62692 -4.013 -6.83311
upperneck 4.65675 -5.27222 6.47935
head 2.74215 -2.56756 3.14944
lclavicle 2.33748e-15 -9.26269e-15 0
lhumerus -27.0184 -5.31447 89.7108
lradius 25.7343 0 0
lwrist -30.5637 0 0
lhand -28.849 29.9601 0
lfingers 7.12502 0 0
lthumb -2.20593 59.9285 0
rclavicle 2.33748e-15 -9.26269e-15 0
rhumerus -32.7859 4.55115 -81.623
rradius 32.761 0 0
rwrist 3.78536 0 0
rhand -24.0083 -25.2103 0
rfingers 7.12502 0 0
rthumb 2.4693 -55.1753 0
7
root -2.96129 16.8086 -36.2964 3.49163 -0.478356 -2.72381
lfemur -18.0057 -3.15408 -7.49454
ltibia 37.8175 0 0
lfoot -17.9038 6.47263 0
ltoes -24.837 0 0
rfemur -19.0817 -0.244462 14.6867
rtibia 40.6844 0 0
rfoot -23.1629 -2.32005 0
rtoes -19.5163 0 0
lowerback 7.52996 2.53345 -1.98387
upperback -3.06575 3.27467 1.28038
thorax -7.64456 1.7368 2.00115
lowerneck -4.61422 -4.00579 -6.83116
upperneck 4.6456 -5.26305 6.48068
head 2.7353 -2.56314 3.15006
lclavicle 2.45189e-15 -9.2714e-15 0
lhumerus -27.0055 -5.31082 89.7282
lradius 25.7343 0 0
lwrist -30.5476 0 0
lhand -28.8513 29.9518 0
lfingers 7.12502 0 0
lthumb -2.2081 59.9202 0
rclavicle 2.45189e-15 -9.2714e-15 0
rhumerus -32.7731 4.50985 -81.5966
rradius 32.7054 0 0
rwrist 3.77172 0 0
rhand -23.9736 -25.2408 0
rfingers 7.12502 0 0
rthumb 2.50285 -55.2053 0
8
root -2.96209 16.8052 -36.2999 3.42603 -0.49421 -2.71368
lfemur -17.9639 -3.00602 -7.52063
ltibia 37.8531 0 0
lfoot -17.9225 6.40895 0
ltoes -24.5585 0 0
rfemur -19.0646 -0.327897 14.6774
rtibia 40.75 0 0
rfoot -23.1606 -2.20249 0
rtoes -19.1917 0 0
lowerback 7.64032 2.52862 -1.98683
upperback -3.04876 3.2661 1.28224
thorax -7.69007 1.73274 2.00243
lowerneck -4.60096 -3.99813 -6.82909
upperneck 4.63369 -5.25329 6.48217
head 2.72804 -2.55842 3.15074
lclavicle 2.57462e-15 -9.28135e-15 0
lhumerus -26.9917 -5.30706 89.7467
lradius 25.7345 0 0
lwrist -30.5305 0 0
lhand -28.8537 29.943 0
lfingers 7.12502 0 0
lthumb -2.21042 59.9113 0
rclavicle 2.57462e-15 -9.28135e-15 0
rhumerus -32.7596 4.46593 -81.5686
rradius 32.6464 0 0
rwrist 3.75735 0 0
rhand -23.9371 -25.2731 0
rfingers 7.12502 0 0
rthumb 2.53811 -55.2371 0
9
root -2.9629 16.8018 -36.3033 3.35676 -0.511051 -2.70303
lfemur -17.9195 -2.85038 -7.54808
ltibia 37.8901 0 0
lfoot -17.9419 6.34234 0
ltoes -24.2657 0 0
rfemur -19.0464 -0.415597 14.6676
rtibia 40.8187 0 0
rfoot -23.1579 -2.0785 0
rtoes -18.8498 0 0
lowerback 7.75688 2.52358 -1.99
upperback -3.03079 3.25711 1.28423
thorax -7.7381 1.72848 2.00383
lowerneck -4.58718 -3.99003 -6.82692
upperneck 4.62108 -5.24297 6.4838
head 2.72041 -2.55342 3.15149
lclavicle 2.70493e-15 -9.29236e-15 0
lhumerus -26.9772 -5.30317 89.7663
lradius 25.7347 0 0
lwrist -30.5123 0 0
lhand -28.8562 29.9336 0
lfingers 7.12502 0 0
lthumb -2.21288 59.902 0
rclavicle 2.70493e-15 -9.29236e-15 0
rhumerus -32.7453 4.4196 -81.539
rradius 32.5842 0 0
rwrist 3.74229 0 0
rhand -23.8989 -25.307 0
rfingers 7.12502 0 0
rthumb 2.57502 -55.2705 0
10
root -2.9637 16.7984 -36.3068 3.28414 -0.528783 -2.69189
lfemur -17.8727 -2.68766 -7.57677
ltibia 37.9285 0 0
lfoot -17.962 6.27293 0
ltoes -23.9598 0 0
rfemur -19.0271 -0.50728 14.6575
rtibia 40.8903 0 0
rfoot -23.1549 -1.94859 0
rtoes -18.4918 0 0
lowerback 7.87911 2.51832 -1.99338
upperback -3.01191 3.24771 1.28631
thorax -7.78844 1.72403 2.00533
lowerneck -4.57286 -3.98154 -6.82466
upperneck 4.60784 -5.23213 6.48556
head 2.71243 -2.54818 3.15228
lclavicle 2.84209e-15 -9.30427e-15 0
lhumerus -26.962 -5.29915 89.7869
lradius 25.735 0 0
lwrist -30.4933 0 0
lhand -28.8589 29.9238 0
lfingers 7.12502 0 0
lthumb -2.21547 59.8921 0
rclavicle 2.84209e-15 -9.30427e-15 0
rhumerus -32.7303 4.37104 -81.5081
rradius 32.519 0 0
rwrist 3.72658 0 0
rhand -23.859 -25.3426 0
rfingers 7.12502 0 0
rthumb 2.6135 -55.3056 0
11
root -2.96451 16.795 -36.3102 3.20845 -0.547309 -2.68029
lfemur -17.8238 -2.51836 -7.60663
ltibia 37.9682 0 0
lfoot -17.9829 6.20087 0
ltoes -23.6415 0 0
rfemur -19.007 -0.602662 14.6469
rtibia 40.9648 0 0
rfoot -23.1517 -1.81325 0
rtoes -18.119 0 0
lowerback 8.00652 2.51286 -1.99693
upperback -2.99222 3.23795 1.28849
thorax -7.84091 1.71941 2.0069
lowerneck -4.55804 -3.97269 -6.82231
upperneck 4.59402 -5.22084 6.48742
head 2.70413 -2.54271 3.15312
lclavicle 2.98538e-15 -9.31691e-15 0
lhumerus -26.9462 -5.295 89.8084
lradius 25.7354 0 0
lwrist -30.4735 0 0
lhand -28.8617 29.9135 0
lfingers 7.12502 0 0
lthumb -2.21816 59.8818 0
rclavicle 2.98538e-15 -9.31691e-15 0
rhumerus -32.7147 4.32044 -81.4758
rradius 32.4511 0 0
rwrist 3.71026 0 0
rhand -23.8177 -25.3796 0
rfingers 7.12502 0 0
rthumb 2.65345 -55.342 0
12
root -2.96532 16.7916 -36.3137 3.12999 -0.566535 -2.66827
lfemur -17.773 -2.34299 -7.63756
ltibia 38.0092 0 0
lfoot -18.0044 6.12628 0
ltoes -23.3118 0 0
rfemur -18.986 -0.701463 14.636
rtibia 41.0418 0 0
rfoot -23.1483 -1.67299 0
rtoes -17.7327 0 0
lowerback 8.13861 2.50722 -2.00061
upperback -2.9718 3.22784 1.29076
thorax -7.89528 1.71462 2.00854
lowerneck -4.54271 -3.96352 -6.81988
upperneck 4.57969 -5.20913 6.48935
head 2.69553 -2.53704 3.154
lclavicle 3.13406e-15 -9.33012e-15 0
lhumerus -26.9298 -5.29072 89.8307
lradius 25.7358 0 0
lwrist -30.4529 0 0
lhand -28.8646 29.9028 0
lfingers 7.12502 0 0
lthumb -2.22096 59.8711 0
rclavicle 3.13406e-15 -9.33012e-15 0
rhumerus -32.6985 4.26799 -81.4424
rradius 32.3807 0 0
rwrist 3.69336 0 0
rhand -23.7748 -25.4179 0
rfingers 7.12502 0 0
rthumb 2.6948 -55.3798 0
13
root -2.96612 16.7882 -36.3171 3.04905 -0.586363 -2.65588
lfemur -17.7206 -2.16206 -7.66947
ltibia 38.0515 0 0
lfoot -18.0266 6.04932 0
ltoes -22.9716 0 0
rfemur -18.9644 -0.803399 14.6248
rtibia 41.1213 0 0
rfoot -23.1448 -1.52829 0
rtoes -17.3341 0 0
lowerback 8.27486 2.50139 -2.00441
upperback -2.95073 3.21741 1.29309
thorax -7.95138 1.70969 2.01023
lowerneck -4.52688 -3.95406 -6.81736
upperneck 4.56491 -5.19705 6.49135
head 2.68665 -2.53119 3.1549
lclavicle 3.2874e-15 -9.34372e-15 0
lhumerus -26.9128 -5.2863 89.8537
lradius 25.7362 0 0
lwrist -30.4317 0 0
lhand -28.8676 29.8918 0
lfingers 7.12502 0 0
lthumb -2.22384 59.86 0
rclavicle 3.2874e-15 -9.34372e-15 0
rhumerus -32.6818 4.21389 -81.408
rradius 32.3082 0 0
rwrist 3.67593 0 0
rhand -23.7306 -25.4575 0
rfingers 7.12502 0 0
rthumb 2.73748 -55.4187 0
14
root -2.96693 16.7848 -36.3206 2.96593 -0.606697 -2.64314
lfemur -17.667 -1.97607 -7.70227
ltibia 38.0952 0 0
lfoot -18.0495 5.97011 0
ltoes -22.6219 0 0
rfemur -18.9422 -0.908189 14.6132
rtibia 41.2031 0 0
rfoot -23.1413 -1.37965 0
rtoes -16.9246 0 0
lowerback 8.41478 2.49539 -2.0083
upperback -2.92911 3.20668 1.29548
thorax -8.009 1.70461 2.01195
lowerneck -4.51058 -3.94434 -6.81478
upperneck 4.54974 -5.18465 6.49338
head 2.67753 -2.52518 3.15582
lclavicle 3.44467e-15 -9.35755e-15 0
lhumerus -26.8954 -5.28173 89.8772
lradius 25.7366 0 0
lwrist -30.4099 0 0
lhand -28.8706 29.8805 0
lfingers 7.12502 0 0
lthumb -2.2268 59.8487 0
rclavicle 3.44467e-15 -9.35755e-15 0
rhumerus -32.6647 4.15832 -81.3726
rradius 32.2336 0 0
rwrist 3.65799 0 0
rhand -23.6852 -25.4981 0
rfingers 7.12502 0 0
rthumb 2.78139 -55.4588 0
